# xmcd CD database file
# Copyright (C) 1993-1998 Ti Kan
# 
# Track frame offsets:
#     182
#     11532
#     26547
#     37252
#     50897
#     63415
#     102775
#     115370
#     127390
#     137577
#     176042
#     191072
#     201945
# 
# Disc length: 3085 seconds
# 
# Revision: 1
# Processed by: cddbd v1.4b41PL1 Copyright (c) Steve Scherf et al.
# Submitted via: DiscPlay 4.0.4
# 
DISCID=c80c0b0d
DTITLE=Johnny Mars - King Of The Blues Harp
DYEAR=1900
DGENRE=
TTITLE0=I'll Go Crazy
TTITLE1=Imagination
TTITLE2=Mighty Mars
TTITLE3=Cash Ain't Nothing But Trash
TTITLE4=Watch Yourself
TTITLE5=If I Had a Woman
TTITLE6=High Temperature
TTITLE7=You Don't Have to Go
TTITLE8=Mellow Down
TTITLE9=Desert Island
TTITLE10=Horses and Places
TTITLE11=Rocket 88
TTITLE12=Johnny's Groove
EXTD=
EXTT0=
EXTT1=
EXTT2=
EXTT3=
EXTT4=
EXTT5=
EXTT6=
EXTT7=
EXTT8=
EXTT9=
EXTT10=
EXTT11=
EXTT12=
PLAYORDER=
